<svg width="64" height="64" viewBox="0 0 64 64" xmlns="http://www.w3.org/2000/svg" role="img" aria-label="Rozanov Sales Manager">
    <defs>
        <linearGradient id="bg" x1="10" y1="7" x2="56" y2="60" gradientUnits="userSpaceOnUse">
            <stop stop-color="#fff8f6"/>
            <stop offset="0.52" stop-color="#ffe5f0"/>
            <stop offset="1" stop-color="#f3d8e4"/>
        </linearGradient>
        <linearGradient id="accent" x1="16" y1="48" x2="50" y2="16" gradientUnits="userSpaceOnUse">
            <stop stop-color="#b83273"/>
            <stop offset="0.55" stop-color="#df5d98"/>
            <stop offset="1" stop-color="#f5a9c9"/>
        </linearGradient>
        <filter id="shadow" x="-20%" y="-20%" width="140%" height="140%" color-interpolation-filters="sRGB">
            <feDropShadow dx="0" dy="6" stdDeviation="5" flood-color="#7f2c55" flood-opacity="0.22"/>
        </filter>
    </defs>

    <rect x="5" y="5" width="54" height="54" rx="18" fill="url(#bg)"/>
    <rect x="5.75" y="5.75" width="52.5" height="52.5" rx="17.25" fill="none" stroke="#e9bdd0" stroke-width="1.5"/>

    <g filter="url(#shadow)">
        <rect x="17" y="35" width="7" height="12" rx="3.5" fill="url(#accent)"/>
        <rect x="28.5" y="27" width="7" height="20" rx="3.5" fill="url(#accent)"/>
        <rect x="40" y="19" width="7" height="28" rx="3.5" fill="url(#accent)"/>
    </g>

    <path d="M17 47H49" stroke="#8d315f" stroke-width="3" stroke-linecap="round" opacity="0.26"/>
    <circle cx="46.5" cy="17.5" r="3.5" fill="#fff" opacity="0.76"/>
    <path d="M49 12.5L50.1 15.3L53 16.4L50.1 17.5L49 20.5L47.9 17.5L45 16.4L47.9 15.3L49 12.5Z" fill="#d84f8b"/>
</svg>
